<svg width="64" xmlns="http://www.w3.org/2000/svg" viewBox="0 0 64 64" height="64"> <path stroke-linejoin="round" stroke-width="5" d="m10 0c-5.3 0-9.6 4-10 9.1v45.8c0.4 5 4.6 9 9.7 9.1h44.5c5.4-0.1 9.8-4.6 9.8-10v-44c0-5.5-4.5-10-10-10h-44zm7.6 9.8c0.6 0 1.3 0.2 1.8 0.7l12.5 12.5 12.4-12.4c1-1 2.6-1 3.6 0l5.4 5.4c1 1 1 2.6 0 3.6l-12.4 12.4 12.4 12.4c0.9 1 0.9 2.6 0 3.6l-5.5 5.4c-1 1-2.6 1-3.5 0l-12.4-12.4-12.5 12.5c-1 1-2.5 1-3.5 0l-5.5-5.5c-1-1-1-2.5 0-3.5l12.5-12.5-12.5-12.5c-1-1-1-2.6 0-3.5l5.4-5.5c0.5-0.5 1.2-0.7 1.8-0.7z" fill="#e60000"/> </svg> 
