<svg id="svg4706" xmlns:rdf="http://www.w3.org/1999/02/22-rdf-syntax-ns#" xmlns="http://www.w3.org/2000/svg" height="64" viewBox="0 0 64 64" width="64" version="1.1" xmlns:cc="http://creativecommons.org/ns#" xmlns:dc="http://purl.org/dc/elements/1.1/"> <g id="layer1"> <path id="rect5271" d="m9.9941 0.0058594c-5.4698 0.000548-9.9071 4.394-9.9921 9.8437l-0.0000469 44.312c0.085266 5.41 4.4601 9.773 9.875 9.836h44.232c5.468-0.064 9.883-4.511 9.883-9.994v-43.998c0-5.5228-4.477-9.9996-10-10l-43.998-0.0001406zm38.727 14.156c0.844-0.012 1.658 0.309 2.256 0.891l4.347 4.236c1.223 1.192 1.221 3.124-0.004 4.315l-27.869 27.169c-1.221 1.189-3.201 1.189-4.422 0l-4.345-4.234c-0.079-0.079-0.154-0.162-0.223-0.248l-9.6641-9.424c-1.2197-1.192-1.2181-3.123 0.0039-4.312l4.2992-4.194c1.221-1.191 3.204-1.191 4.425 0l7.69 7.498 21.34-20.804c0.575-0.561 1.352-0.881 2.166-0.893z" fill-rule="evenodd" fill="#7ac18a"/> </g> </svg> 
