<svg id="svg4141" xmlns:rdf="http://www.w3.org/1999/02/22-rdf-syntax-ns#" xmlns="http://www.w3.org/2000/svg" height="64" viewBox="0 0 64 64" width="64" version="1.1" xmlns:cc="http://creativecommons.org/ns#" xmlns:dc="http://purl.org/dc/elements/1.1/"> <g id="layer1"> <path id="rect4689" d="m0-0.0019531v64.008h64.006v-64.008l-64.006 0.0000469zm8.0449 18.365h6.7601l6.041 10.399 6.039-10.399h6.76l-9.68 16.92v11.039h-6.24v-11.039l-9.6801-16.92zm35.978 6.078c3.28 0 6.001 1.081 8.161 3.241 2.16 2.133 3.24 4.76 3.24 7.88s-1.08 5.746-3.24 7.879c-2.16 2.134-4.881 3.202-8.161 3.202-3.253 0-5.959-1.068-8.119-3.202-2.16-2.133-3.24-4.759-3.24-7.879s1.08-5.747 3.24-7.88c2.16-2.16 4.866-3.241 8.119-3.241zm0 5.121c-1.546 0-2.826 0.56-3.839 1.68-0.987 1.12-1.481 2.56-1.481 4.32s0.494 3.201 1.481 4.321c1.013 1.093 2.293 1.638 3.839 1.638 1.574 0 2.854-0.545 3.84-1.638 1.014-1.12 1.52-2.561 1.52-4.321s-0.506-3.2-1.52-4.32c-0.986-1.12-2.266-1.68-3.84-1.68z" fill-rule="evenodd" fill="#404040"/> </g> </svg>  
